<svg xmlns="http://www.w3.org/2000/svg" width="24" height="24" fill="none"><path fill="#000" fill-rule="evenodd" d="M1.5 5.5A2.5 2.5 0 0 1 4 3h16a2.5 2.5 0 0 1 2.5 2.5v11A2.5 2.5 0 0 1 20 19H4a2.5 2.5 0 0 1-2.5-2.5v-11ZM4 4a1.5 1.5 0 0 0-1.5 1.5v11A1.5 1.5 0 0 0 4 18h16a1.5 1.5 0 0 0 1.5-1.5v-11A1.5 1.5 0 0 0 20 4H4Z" clip-rule="evenodd"/><path fill="#000" fill-rule="evenodd" d="M9.77 7.057a.5.5 0 0 1 .517.033l5 3.5a.5.5 0 0 1 0 .82l-5 3.5a.5.5 0 0 1-.787-.41v-7a.5.5 0 0 1 .27-.443zm.73 1.403v5.08L14.128 11 10.5 8.46zM18 21.5H6v-1h12v1z" clip-rule="evenodd" /></svg>